<svg width="300" height="300" xmlns="http://www.w3.org/2000/svg"><path d="M0 0h300v300H0V0zm105.125 132.558h24.443l-22.61-37.11c5.622-1.714 10.022-4.572 13.2-8.572 3.177-4.001 4.766-8.94 4.766-14.82 0-4.98-.937-9.144-2.811-12.492-1.874-3.347-4.38-6.042-7.517-8.083-3.137-2.041-6.68-3.49-10.633-4.348a57.193 57.193 0 0 0-12.16-1.286H58.804v86.711h20.533V98.143h7.088l18.7 34.415zm141.054-11.39L231.535 107.4c-1.887 2.622-4.39 4.752-7.507 6.391-3.118 1.64-6.769 2.459-10.953 2.459-3.61 0-6.933-.656-9.968-1.967-3.036-1.311-5.641-3.134-7.815-5.47-2.174-2.335-3.877-5.142-5.107-8.42-1.231-3.277-1.846-6.883-1.846-10.816 0-3.851.615-7.395 1.846-10.632 1.23-3.237 2.953-6.043 5.168-8.42 2.216-2.376 4.861-4.24 7.938-5.592 3.077-1.352 6.461-2.028 10.153-2.028 3.364 0 6.646.655 9.845 1.966 3.2 1.311 5.784 3.319 7.753 6.023l14.276-14.258c-3.692-4.18-8.512-7.354-14.46-9.526-5.948-2.171-12-3.257-18.152-3.257-6.646 0-12.84 1.065-18.583 3.196-5.743 2.13-10.748 5.182-15.014 9.157-4.267 3.974-7.61 8.788-10.03 14.442-2.42 5.654-3.63 11.964-3.63 18.93 0 6.8 1.19 13.028 3.568 18.682 2.38 5.654 5.661 10.51 9.846 14.566 4.184 4.056 9.127 7.19 14.829 9.402 5.702 2.213 11.917 3.32 18.644 3.32 7.384 0 13.907-1.291 19.568-3.873 5.66-2.58 10.42-6.084 14.275-10.509zM105.125 251.162h24.443l-22.61-37.11c5.622-1.714 10.022-4.572 13.2-8.573 3.177-4 4.766-8.94 4.766-14.819 0-4.98-.937-9.145-2.811-12.492-1.874-3.348-4.38-6.042-7.517-8.083-3.137-2.042-6.68-3.49-10.633-4.348a57.193 57.193 0 0 0-12.16-1.286H58.804v86.71h20.533v-34.414h7.088l18.7 34.415zm145.041-43.6c0-8.166-1.425-15.024-4.275-20.576-2.85-5.552-6.595-9.982-11.236-13.288-4.641-3.307-9.934-5.675-15.877-7.104a77.068 77.068 0 0 0-18.076-2.143h-31.267v86.71h32.244c5.944 0 11.806-.836 17.587-2.51 5.781-1.674 10.972-4.286 15.572-7.838 4.6-3.552 8.305-8.083 11.114-13.595 2.81-5.511 4.214-12.063 4.214-19.657z" fill="#4A4A4A" fill-rule="evenodd"/></svg>