<svg width="147" height="147" viewBox="0 0 147 147" fill="none" xmlns="http://www.w3.org/2000/svg">
<mask id="path-1-inside-1_102_13" fill="white">
<path fill-rule="evenodd" clip-rule="evenodd" d="M147 0H0V147H147V0ZM41.94 48.14L51.12 65H63.12L52.02 46.82C54.78 45.98 56.94 44.58 58.5 42.62C60.06 40.66 60.84 38.24 60.84 35.36C60.84 32.92 60.38 30.88 59.46 29.24C58.54 27.6 57.31 26.28 55.77 25.28C54.23 24.28 52.49 23.57 50.55 23.15C48.61 22.73 46.62 22.52 44.58 22.52H28.38V65H38.46V48.14H41.94ZM113.48 64.25C116.24 62.99 118.56 61.28 120.44 59.12L113.3 52.4C112.38 53.68 111.16 54.72 109.64 55.52C108.12 56.32 106.34 56.72 104.3 56.72C102.54 56.72 100.92 56.4 99.44 55.76C97.96 55.12 96.69 54.23 95.63 53.09C94.57 51.95 93.74 50.58 93.14 48.98C92.54 47.38 92.24 45.62 92.24 43.7C92.24 41.82 92.54 40.09 93.14 38.51C93.74 36.93 94.58 35.56 95.66 34.4C96.74 33.24 98.03 32.33 99.53 31.67C101.03 31.01 102.68 30.68 104.48 30.68C106.12 30.68 107.72 31 109.28 31.64C110.84 32.28 112.1 33.26 113.06 34.58L120.02 27.62C118.22 25.58 115.87 24.03 112.97 22.97C110.07 21.91 107.12 21.38 104.12 21.38C100.88 21.38 97.86 21.9 95.06 22.94C92.26 23.98 89.82 25.47 87.74 27.41C85.66 29.35 84.03 31.7 82.85 34.46C81.67 37.22 81.08 40.3 81.08 43.7C81.08 47.02 81.66 50.06 82.82 52.82C83.98 55.58 85.58 57.95 87.62 59.93C89.66 61.91 92.07 63.44 94.85 64.52C97.63 65.6 100.66 66.14 103.94 66.14C107.54 66.14 110.72 65.51 113.48 64.25ZM51.12 123L41.94 106.14H38.46V123H28.38V80.52H44.58C46.62 80.52 48.61 80.73 50.55 81.15C52.49 81.57 54.23 82.28 55.77 83.28C57.31 84.28 58.54 85.6 59.46 87.24C60.38 88.88 60.84 90.92 60.84 93.36C60.84 96.24 60.06 98.66 58.5 100.62C56.94 102.58 54.78 103.98 52.02 104.82L63.12 123H51.12ZM122.72 101.64C122.72 105.36 122.03 108.57 120.65 111.27C119.27 113.97 117.45 116.19 115.19 117.93C112.93 119.67 110.38 120.95 107.54 121.77C104.7 122.59 101.82 123 98.9 123H83.06V80.52H98.42C101.42 80.52 104.38 80.87 107.3 81.57C110.22 82.27 112.82 83.43 115.1 85.05C117.38 86.67 119.22 88.84 120.62 91.56C122.02 94.28 122.72 97.64 122.72 101.64Z"/>
</mask>
<path fill-rule="evenodd" clip-rule="evenodd" d="M147 0H0V147H147V0ZM41.94 48.14L51.12 65H63.12L52.02 46.82C54.78 45.98 56.94 44.58 58.5 42.62C60.06 40.66 60.84 38.24 60.84 35.36C60.84 32.92 60.38 30.88 59.46 29.24C58.54 27.6 57.31 26.28 55.77 25.28C54.23 24.28 52.49 23.57 50.55 23.15C48.61 22.73 46.62 22.52 44.58 22.52H28.38V65H38.46V48.14H41.94ZM113.48 64.25C116.24 62.99 118.56 61.28 120.44 59.12L113.3 52.4C112.38 53.68 111.16 54.72 109.64 55.52C108.12 56.32 106.34 56.72 104.3 56.72C102.54 56.72 100.92 56.4 99.44 55.76C97.96 55.12 96.69 54.23 95.63 53.09C94.57 51.95 93.74 50.58 93.14 48.98C92.54 47.38 92.24 45.62 92.24 43.7C92.24 41.82 92.54 40.09 93.14 38.51C93.74 36.93 94.58 35.56 95.66 34.4C96.74 33.24 98.03 32.33 99.53 31.67C101.03 31.01 102.68 30.68 104.48 30.68C106.12 30.68 107.72 31 109.28 31.64C110.84 32.28 112.1 33.26 113.06 34.58L120.02 27.62C118.22 25.58 115.87 24.03 112.97 22.97C110.07 21.91 107.12 21.38 104.12 21.38C100.88 21.38 97.86 21.9 95.06 22.94C92.26 23.98 89.82 25.47 87.74 27.41C85.66 29.35 84.03 31.7 82.85 34.46C81.67 37.22 81.08 40.3 81.08 43.7C81.08 47.02 81.66 50.06 82.82 52.82C83.98 55.58 85.58 57.95 87.62 59.93C89.66 61.91 92.07 63.44 94.85 64.52C97.63 65.6 100.66 66.14 103.94 66.14C107.54 66.14 110.72 65.51 113.48 64.25ZM51.12 123L41.94 106.14H38.46V123H28.38V80.52H44.58C46.62 80.52 48.61 80.73 50.55 81.15C52.49 81.57 54.23 82.28 55.77 83.28C57.31 84.28 58.54 85.6 59.46 87.24C60.38 88.88 60.84 90.92 60.84 93.36C60.84 96.24 60.06 98.66 58.5 100.62C56.94 102.58 54.78 103.98 52.02 104.82L63.12 123H51.12ZM122.72 101.64C122.72 105.36 122.03 108.57 120.65 111.27C119.27 113.97 117.45 116.19 115.19 117.93C112.93 119.67 110.38 120.95 107.54 121.77C104.7 122.59 101.82 123 98.9 123H83.06V80.52H98.42C101.42 80.52 104.38 80.87 107.3 81.57C110.22 82.27 112.82 83.43 115.1 85.05C117.38 86.67 119.22 88.84 120.62 91.56C122.02 94.28 122.72 97.64 122.72 101.64Z" fill="white"/>
<path d="M0 0V-12H-12V0H0ZM147 0H159V-12H147V0ZM0 147H-12V159H0V147ZM147 147V159H159V147H147ZM51.12 65L40.581 70.7383L43.9903 77H51.12V65ZM41.94 48.14L52.479 42.4017L49.0697 36.14H41.94V48.14ZM63.12 65V77H84.5067L73.3619 58.7467L63.12 65ZM52.02 46.82L48.5261 35.3399L33.7049 39.8507L41.7781 53.0733L52.02 46.82ZM58.5 42.62L67.8891 50.093L67.8891 50.093L58.5 42.62ZM59.46 29.24L69.9257 23.369V23.369L59.46 29.24ZM55.77 25.28L49.2347 35.3443L49.2347 35.3443L55.77 25.28ZM50.55 23.15L53.0891 11.4217L53.0891 11.4217L50.55 23.15ZM28.38 22.52V10.52H16.38V22.52H28.38ZM28.38 65H16.38V77H28.38V65ZM38.46 65V77H50.46V65H38.46ZM38.46 48.14V36.14H26.46V48.14H38.46ZM120.44 59.12L129.492 66.9983L137.069 58.2921L128.664 50.3816L120.44 59.12ZM113.48 64.25L118.463 75.1663L118.464 75.1663L113.48 64.25ZM113.3 52.4L121.524 43.6616L111.55 34.274L103.556 45.3964L113.3 52.4ZM109.64 55.52L104.051 44.901L104.051 44.901L109.64 55.52ZM99.44 55.76L94.6771 66.7743L94.6771 66.7743L99.44 55.76ZM95.63 53.09L104.418 44.9187L104.418 44.9187L95.63 53.09ZM93.14 48.98L81.904 53.1934L81.9041 53.1935L93.14 48.98ZM93.14 38.51L81.9217 34.2499L81.9216 34.2499L93.14 38.51ZM95.66 34.4L104.443 42.577L104.443 42.577L95.66 34.4ZM99.53 31.67L94.6971 20.6862L94.6971 20.6862L99.53 31.67ZM109.28 31.64L104.725 42.742L104.725 42.742L109.28 31.64ZM113.06 34.58L103.355 41.638L111.615 52.9955L121.545 43.0653L113.06 34.58ZM120.02 27.62L128.505 36.1053L136.477 28.1338L129.018 19.6805L120.02 27.62ZM95.06 22.94L90.8818 11.6909L90.8818 11.6909L95.06 22.94ZM87.74 27.41L95.9248 36.1855L95.9248 36.1855L87.74 27.41ZM82.85 34.46L71.8161 29.7426L71.8161 29.7426L82.85 34.46ZM82.82 52.82L71.7574 57.4695L71.7574 57.4695L82.82 52.82ZM87.62 59.93L79.2623 68.541L79.2623 68.541L87.62 59.93ZM94.85 64.52L99.1955 53.3344L99.1955 53.3344L94.85 64.52ZM41.94 106.14L52.479 100.402L49.0697 94.14H41.94V106.14ZM51.12 123L40.581 128.738L43.9903 135H51.12V123ZM38.46 106.14V94.14H26.46V106.14H38.46ZM38.46 123V135H50.46V123H38.46ZM28.38 123H16.38V135H28.38V123ZM28.38 80.52V68.52H16.38V80.52H28.38ZM50.55 81.15L53.0891 69.4217L53.0891 69.4217L50.55 81.15ZM55.77 83.28L49.2347 93.3443L49.2348 93.3443L55.77 83.28ZM58.5 100.62L49.1109 93.147L49.1109 93.147L58.5 100.62ZM52.02 104.82L48.5261 93.3399L33.7049 97.8507L41.7781 111.073L52.02 104.82ZM63.12 123V135H84.5066L73.3619 116.747L63.12 123ZM120.65 111.27L109.965 105.809L109.965 105.809L120.65 111.27ZM115.19 117.93L107.869 108.422H107.869L115.19 117.93ZM107.54 121.77L104.211 110.241L104.211 110.241L107.54 121.77ZM83.06 123H71.06V135H83.06V123ZM83.06 80.52V68.52H71.06V80.52H83.06ZM107.3 81.57L104.503 93.2394L104.503 93.2394L107.3 81.57ZM120.62 91.56L109.95 97.0517L109.95 97.0517L120.62 91.56ZM0 12H147V-12H0V12ZM12 147V0H-12V147H12ZM147 135H0V159H147V135ZM135 0V147H159V0H135ZM61.659 59.2617L52.479 42.4017L31.401 53.8783L40.581 70.7383L61.659 59.2617ZM63.12 53H51.12V77H63.12V53ZM41.7781 53.0733L52.8781 71.2533L73.3619 58.7467L62.2619 40.5667L41.7781 53.0733ZM49.1109 35.147C49.1298 35.1234 49.1524 35.0994 49.1741 35.0798C49.1954 35.0605 49.2019 35.0581 49.1833 35.0702C49.149 35.0924 48.9617 35.2073 48.5261 35.3399L55.5139 58.3001C60.2357 56.863 64.5946 54.2322 67.8891 50.093L49.1109 35.147ZM48.84 35.36C48.84 35.7136 48.7931 35.7793 48.8336 35.6537C48.853 35.5937 48.8867 35.5081 48.9395 35.4092C48.9926 35.3099 49.0523 35.2206 49.1109 35.1471L67.8891 50.093C71.3874 45.6977 72.84 40.528 72.84 35.36H48.84ZM48.9943 35.111C48.8273 34.8133 48.7858 34.6258 48.7889 34.6396C48.7944 34.6639 48.84 34.8847 48.84 35.36H72.84C72.84 31.4595 72.1077 27.2586 69.9257 23.369L48.9943 35.111ZM49.2347 35.3443C49.1973 35.32 49.1333 35.2706 49.0682 35.2007C49.004 35.1318 48.9826 35.0901 48.9943 35.111L69.9257 23.369C68.0784 20.0759 65.5161 17.3006 62.3053 15.2157L49.2347 35.3443ZM48.0109 34.8783C48.6447 35.0155 49.0104 35.1986 49.2347 35.3443L62.3053 15.2157C59.4496 13.3614 56.3353 12.1245 53.0891 11.4217L48.0109 34.8783ZM44.58 34.52C45.7901 34.52 46.928 34.6439 48.0109 34.8783L53.0891 11.4217C50.2919 10.8161 47.4499 10.52 44.58 10.52V34.52ZM28.38 34.52H44.58V10.52H28.38V34.52ZM40.38 65V22.52H16.38V65H40.38ZM38.46 53H28.38V77H38.46V53ZM26.46 48.14V65H50.46V48.14H26.46ZM41.94 36.14H38.46V60.14H41.94V36.14ZM111.388 51.2417C110.698 52.0344 109.794 52.7415 108.496 53.3337L118.464 75.1663C122.686 73.2385 126.422 70.5257 129.492 66.9983L111.388 51.2417ZM105.076 61.1384L112.216 67.8584L128.664 50.3816L121.524 43.6616L105.076 61.1384ZM115.229 66.139C118.245 64.5515 120.943 62.3268 123.044 59.4036L103.556 45.3964C103.67 45.2371 103.796 45.105 103.91 45.0078C104.021 44.9132 104.082 44.8847 104.051 44.901L115.229 66.139ZM104.3 68.72C107.923 68.72 111.69 68.0017 115.229 66.139L104.051 44.901C104.281 44.78 104.458 44.729 104.534 44.712C104.602 44.6967 104.537 44.72 104.3 44.72V68.72ZM94.6771 66.7743C97.7936 68.122 101.053 68.72 104.3 68.72V44.72C104.15 44.72 104.086 44.7066 104.09 44.7075C104.091 44.7077 104.104 44.7103 104.126 44.7171C104.148 44.7239 104.174 44.7334 104.203 44.7457L94.6771 66.7743ZM86.842 61.2613C89.0733 63.661 91.729 65.4995 94.6771 66.7743L104.203 44.7457C104.18 44.7357 104.207 44.7456 104.264 44.7854C104.322 44.8259 104.376 44.8739 104.418 44.9187L86.842 61.2613ZM81.9041 53.1935C83 56.116 84.6157 58.867 86.842 61.2613L104.418 44.9187C104.461 44.9649 104.479 44.9951 104.476 44.9895C104.471 44.9818 104.432 44.9157 104.376 44.7665L81.9041 53.1935ZM80.24 43.7C80.24 46.8824 80.7403 50.0901 81.904 53.1934L104.376 44.7666C104.34 44.6699 104.24 44.3577 104.24 43.7H80.24ZM81.9216 34.2499C80.75 37.3352 80.24 40.5273 80.24 43.7H104.24C104.24 43.1127 104.33 42.8448 104.358 42.7701L81.9216 34.2499ZM86.8773 26.223C84.671 28.5927 83.0356 31.3164 81.9217 34.2499L104.358 42.7701C104.406 42.6443 104.441 42.5845 104.45 42.57C104.458 42.5569 104.455 42.5639 104.443 42.577L86.8773 26.223ZM94.6971 20.6862C91.7553 21.9806 89.1074 23.8277 86.8773 26.223L104.443 42.577C104.434 42.5869 104.42 42.6001 104.403 42.6149C104.386 42.6296 104.37 42.6427 104.355 42.6532C104.34 42.6637 104.331 42.6691 104.329 42.6698C104.328 42.6704 104.338 42.6645 104.363 42.6538L94.6971 20.6862ZM104.48 18.68C101.181 18.68 97.8643 19.2927 94.6971 20.6862L104.363 42.6538C104.332 42.6673 104.304 42.6776 104.281 42.6848C104.258 42.692 104.246 42.6945 104.246 42.6945C104.246 42.6944 104.264 42.6909 104.301 42.6874C104.338 42.6838 104.397 42.68 104.48 42.68V18.68ZM113.835 20.538C110.871 19.3221 107.727 18.68 104.48 18.68V42.68C104.513 42.68 104.569 42.6779 104.725 42.742L113.835 20.538ZM122.765 27.522C120.451 24.341 117.382 21.9931 113.835 20.538L104.725 42.742C104.555 42.6721 104.304 42.5422 104.028 42.3272C103.749 42.1106 103.522 41.8677 103.355 41.638L122.765 27.522ZM111.535 19.1347L104.575 26.0947L121.545 43.0653L128.505 36.1053L111.535 19.1347ZM108.85 34.2407C110.129 34.708 110.715 35.2114 111.022 35.5595L129.018 19.6805C125.725 15.9486 121.611 13.3521 117.09 11.6993L108.85 34.2407ZM104.12 33.38C105.674 33.38 107.231 33.6488 108.85 34.2407L117.09 11.6993C112.909 10.1712 108.566 9.38 104.12 9.38V33.38ZM99.2382 34.1891C100.592 33.6862 102.185 33.38 104.12 33.38V9.38C99.5748 9.38 95.1279 10.1138 90.8818 11.6909L99.2382 34.1891ZM95.9248 36.1855C96.7881 35.3803 97.8483 34.7054 99.2382 34.1891L90.8818 11.6909C86.6717 13.2546 82.8519 15.5597 79.5552 18.6345L95.9248 36.1855ZM93.8839 39.1774C94.4441 37.867 95.1337 36.9233 95.9248 36.1855L79.5552 18.6345C76.1863 21.7767 73.6159 25.5329 71.8161 29.7426L93.8839 39.1774ZM93.08 43.7C93.08 41.707 93.4206 40.261 93.8839 39.1774L71.8161 29.7426C69.9194 34.1791 69.08 38.893 69.08 43.7H93.08ZM93.8826 48.1705C93.4055 47.0352 93.08 45.5976 93.08 43.7H69.08C69.08 48.4424 69.9145 53.0848 71.7574 57.4695L93.8826 48.1705ZM95.9777 51.319C95.1578 50.5232 94.4506 49.5219 93.8826 48.1705L71.7574 57.4695C73.5094 61.6381 76.0022 65.3767 79.2623 68.541L95.9777 51.319ZM99.1955 53.3344C97.8368 52.8066 96.8098 52.1266 95.9777 51.319L79.2623 68.541C82.5103 71.6934 86.3031 74.0734 90.5045 75.7056L99.1955 53.3344ZM103.94 54.14C101.998 54.14 100.458 53.8249 99.1955 53.3344L90.5045 75.7056C94.802 77.3751 99.322 78.14 103.94 78.14V54.14ZM108.497 53.3337C107.565 53.7588 106.137 54.14 103.94 54.14V78.14C108.943 78.14 113.875 77.2612 118.463 75.1663L108.497 53.3337ZM31.401 111.878L40.581 128.738L61.659 117.262L52.479 100.402L31.401 111.878ZM38.46 118.14H41.94V94.14H38.46V118.14ZM50.46 123V106.14H26.46V123H50.46ZM28.38 135H38.46V111H28.38V135ZM16.38 80.52V123H40.38V80.52H16.38ZM44.58 68.52H28.38V92.52H44.58V68.52ZM53.0891 69.4217C50.2919 68.8161 47.4499 68.52 44.58 68.52V92.52C45.7901 92.52 46.928 92.6439 48.0109 92.8783L53.0891 69.4217ZM62.3053 73.2157C59.4496 71.3614 56.3353 70.1245 53.0891 69.4217L48.0109 92.8783C48.6447 93.0155 49.0104 93.1986 49.2347 93.3443L62.3053 73.2157ZM69.9257 81.369C68.0784 78.0759 65.5161 75.3006 62.3052 73.2157L49.2348 93.3443C49.1973 93.32 49.1333 93.2706 49.0682 93.2007C49.004 93.1318 48.9826 93.0901 48.9943 93.111L69.9257 81.369ZM72.84 93.36C72.84 89.4595 72.1077 85.2586 69.9257 81.369L48.9943 93.111C48.8273 92.8133 48.7858 92.6258 48.7889 92.6396C48.7944 92.6639 48.84 92.8847 48.84 93.36H72.84ZM67.8891 108.093C71.3874 103.698 72.84 98.528 72.84 93.36H48.84C48.84 93.7136 48.7931 93.7793 48.8336 93.6537C48.853 93.5937 48.8867 93.5081 48.9395 93.4091C48.9926 93.3099 49.0523 93.2206 49.1109 93.147L67.8891 108.093ZM55.5139 116.3C60.2357 114.863 64.5946 112.232 67.8891 108.093L49.1109 93.147C49.1298 93.1234 49.1524 93.0994 49.1741 93.0798C49.1954 93.0605 49.2019 93.058 49.1833 93.0702C49.149 93.0923 48.9617 93.2073 48.5261 93.3399L55.5139 116.3ZM73.3619 116.747L62.2619 98.5667L41.7781 111.073L52.8781 129.253L73.3619 116.747ZM51.12 135H63.12V111H51.12V135ZM131.335 116.731C133.754 112 134.72 106.835 134.72 101.64H110.72C110.72 103.885 110.306 105.14 109.965 105.809L131.335 116.731ZM122.511 127.438C126.266 124.547 129.199 120.911 131.335 116.731L109.965 105.809C109.341 107.029 108.634 107.833 107.869 108.422L122.511 127.438ZM110.869 133.299C115.101 132.077 119.015 130.13 122.511 127.438L107.869 108.422C106.845 109.21 105.659 109.823 104.211 110.241L110.869 133.299ZM98.9 135C102.96 135 106.96 134.428 110.869 133.299L104.211 110.241C102.44 110.752 100.68 111 98.9 111V135ZM83.06 135H98.9V111H83.06V135ZM71.06 80.52V123H95.06V80.52H71.06ZM98.42 68.52H83.06V92.52H98.42V68.52ZM110.097 69.9006C106.262 68.9812 102.363 68.52 98.42 68.52V92.52C100.477 92.52 102.498 92.7588 104.503 93.2394L110.097 69.9006ZM122.05 75.2678C118.43 72.6953 114.399 70.9318 110.097 69.9006L104.503 93.2394C106.041 93.6082 107.21 94.1647 108.15 94.8322L122.05 75.2678ZM131.29 86.0683C129.095 81.8044 126.039 78.1015 122.05 75.2678L108.15 94.8322C108.721 95.2385 109.345 95.8756 109.95 97.0517L131.29 86.0683ZM134.72 101.64C134.72 96.2962 133.791 90.9278 131.29 86.0683L109.95 97.0517C110.249 97.6323 110.72 98.9837 110.72 101.64H134.72Z" fill="white" mask="url(#path-1-inside-1_102_13)"/>
</svg>
